# xmcd
#
# Track frame offsets:
#	150
#	11652
#	22647
#	33176
#	45196
#	54040
#	69063
#	85992
#	97722
#	108253
#	124994
#	148267
#	179064
#	191758
#	203713
#	228665
#
# Disc length: 3402 seconds
#
# Revision: 1
# Processed by: cddbd v1.5.2PL0 Copyright (c) Steve Scherf et al.
# Submitted via: audiograbber 1.83.01
#
DISCID=c40d4810
DTITLE=Eric Clapton and The Yardbirds - Retro Gold
DYEAR=2005
DGENRE=Blues
TTITLE0=For Your Love
TTITLE1=Boom Boom
TTITLE2=A Certain Girl
TTITLE3=I'm A Man
TTITLE4=Talkin' 'Bout You
TTITLE5=Highway 69 (Live)
TTITLE6=My Little Cabin (Live)
TTITLE7=Got To Hurry (Take 4)
TTITLE8=Putty (In Your Hands)
TTITLE9=Louise (Live)
TTITLE10=Five Long Years (Live)
TTITLE11=Smokestack Lightning (Live)
TTITLE12=Good Morning Little Schoolgirl
TTITLE13=Got Love If You Want It (Live)
TTITLE14=She's So Respectable (Live)
TTITLE15=I Wish You Would (Live)
EXTD=
EXTT0=
EXTT1=
EXTT2=
EXTT3=
EXTT4=
EXTT5=
EXTT6=
EXTT7=
EXTT8=
EXTT9=
EXTT10=
EXTT11=
EXTT12=
EXTT13=
EXTT14=
EXTT15=
PLAYORDER=
